<svg width="80" height="105" viewBox="0 0 80 105" fill="none" xmlns="http://www.w3.org/2000/svg">
<g clip-path="url(#clip0_17_435)">
<path d="M80 40.0921L75.5095 45.7324L78.0535 52.4821L72.0377 56.4502L72.3626 63.6579L65.419 65.5674L63.5138 72.5267L56.3224 72.2011L52.3633 78.2305L45.6289 75.6808L40.0014 80.1815L34.3738 75.6808L27.6367 78.2305L23.6776 72.2011L16.4862 72.5267L14.581 65.5674L7.6374 63.6579L7.96228 56.4502L1.94652 52.4821L4.49048 45.7324L0 40.0921L4.49048 34.4518L1.94652 27.6994L7.96228 23.7313L7.6374 16.5236L14.581 14.6141L16.4862 7.65473L23.6776 7.98034L27.6367 1.95369L34.3738 4.50067L40.0014 0L45.6289 4.50067L52.3633 1.95369L56.3224 7.98034L63.5138 7.65473L65.419 14.6141L72.3626 16.5236L72.0377 23.7313L78.0535 27.6994L75.5095 34.4518L80 40.0921Z" fill="url(#paint0_linear_17_435)"/>
<path d="M79.5017 46.4085L74.1797 51.2706L75.6279 58.3404L69.067 61.3068L68.2521 68.4758L61.0965 69.2651L58.1203 75.8353L51.0693 74.3783L46.2126 79.7068L39.9601 76.1251L33.6965 79.682L28.8481 74.348L21.7944 75.7994L18.8347 69.2209L11.6791 68.4069L10.8917 61.235L4.33632 58.2521L5.79001 51.1851L0.476318 46.3174L4.04723 40.0535L0.498344 33.7729L5.8203 28.9108L4.37211 21.8438L10.9358 18.8774L11.748 11.7056L18.9063 10.9191L21.8798 4.34612L28.9335 5.80312L33.7901 0.474609L40.0399 4.05638L46.3062 0.502204L51.1546 5.83347L58.2056 4.382L61.1681 10.9605L68.3209 11.7746L69.1083 18.9492L75.6637 21.9294L74.21 28.9963L79.5265 33.8668L75.9555 40.1307L79.5017 46.4085Z" fill="url(#paint1_linear_17_435)"/>
<path d="M40.0014 72.7806C33.5507 72.7811 27.2448 70.8644 21.881 67.2729C16.5172 63.6814 12.3365 58.5763 9.86753 52.6033C7.39859 46.6303 6.75232 40.0577 8.01045 33.7166C9.26858 27.3754 12.3746 21.5506 16.9357 16.9788C21.4968 12.4069 27.3082 9.2934 33.6348 8.03188C39.9615 6.77036 46.5193 7.41755 52.479 9.89158C58.4387 12.3656 63.5326 16.5554 67.1164 21.931C70.7003 27.3067 72.6131 33.6268 72.6131 40.0921C72.6029 48.758 69.1639 57.0661 63.0503 63.1941C56.9367 69.3221 48.6477 72.7696 40.0014 72.7806ZM40.0014 8.33903C33.7353 8.33849 27.6098 10.2003 22.3995 13.689C17.1892 17.1778 13.1281 22.1367 10.7298 27.9388C8.33153 33.7409 7.70374 40.1254 8.92586 46.2851C10.148 52.4448 13.1651 58.1029 17.5957 62.5439C22.0263 66.9849 27.6713 70.0094 33.8169 71.2348C39.9625 72.4602 46.3327 71.8316 52.1219 69.4283C57.911 67.0251 62.8591 62.9552 66.3404 57.7334C69.8217 52.5116 71.6798 46.3724 71.6798 40.0921C71.6703 31.674 68.3298 23.6035 62.3911 17.6507C56.4524 11.698 48.4004 8.34926 40.0014 8.33903Z" fill="url(#paint2_linear_17_435)"/>
<path d="M77.0789 94.8288L60.1329 88.7469L52.3192 105L30.6019 51.8972L55.3588 41.7258L77.0789 94.8288Z" fill="url(#paint3_radial_17_435)"/>
<path d="M53.0075 103.543L54.4144 100.618L33.9278 50.5312L31.7004 51.4474L53.0075 103.543Z" fill="url(#paint4_linear_17_435)"/>
<path d="M75.5288 94.2906L72.4782 93.1951L51.9944 43.1082L54.2217 42.1948L75.5288 94.2906Z" fill="url(#paint5_linear_17_435)"/>
<path d="M3.4415 94.8288L20.3875 88.7469L28.2011 105L49.9184 51.8972L25.1616 41.7258L3.4415 94.8288Z" fill="url(#paint6_radial_17_435)"/>
<path d="M27.5128 103.543L26.1059 100.618L46.5926 50.5312L48.8199 51.4474L27.5128 103.543Z" fill="url(#paint7_linear_17_435)"/>
<path d="M4.9888 94.2906L8.03936 93.1951L28.526 43.1082L26.2986 42.1948L4.9888 94.2906Z" fill="url(#paint8_linear_17_435)"/>
<path d="M73.4969 40.0921C73.4969 46.7326 71.5322 53.2239 67.8512 58.7453C64.1703 64.2666 58.9384 68.5699 52.8172 71.111C46.696 73.652 39.9605 74.3168 33.4624 73.0211C26.9643 71.7254 20.9955 68.5275 16.3108 63.8317C11.6261 59.136 8.43587 53.1534 7.14364 46.6404C5.85142 40.1275 6.51519 33.3767 9.05102 27.2419C11.5868 21.107 15.8808 15.8636 21.39 12.1748C26.8991 8.48591 33.3759 6.51728 40.0014 6.51782C48.8852 6.51855 57.4049 10.0562 63.6865 16.3525C69.968 22.6488 73.4969 31.1881 73.4969 40.0921Z" fill="url(#paint9_radial_17_435)"/>
<path d="M40.0014 9.28564C33.9221 9.2851 27.9792 11.0914 22.9242 14.4761C17.8692 17.8609 13.9291 22.672 11.6023 28.3011C9.27547 33.9302 8.66638 40.1245 9.85206 46.1006C11.0377 52.0766 13.9649 57.5661 18.2634 61.8747C22.5619 66.1834 28.0387 69.1177 34.0011 70.3066C39.9636 71.4955 46.1439 70.8856 51.7605 68.554C57.377 66.2224 62.1776 62.2738 65.5552 57.2077C68.9327 52.1415 70.7354 46.1853 70.7354 40.0922C70.7354 31.9223 67.4975 24.0869 61.7338 18.3096C55.9701 12.5324 48.1528 9.28638 40.0014 9.28564ZM40.0014 65.1094C35.0645 65.11 30.2384 63.6432 26.1333 60.8946C22.0282 58.146 18.8285 54.239 16.9388 49.6678C15.0492 45.0965 14.5545 40.0663 15.5173 35.2133C16.4801 30.3602 18.8572 25.9023 22.3478 22.4033C25.8385 18.9043 30.2861 16.5214 35.128 15.5559C39.97 14.5904 44.9889 15.0856 49.55 16.979C54.1111 18.8725 58.0096 22.079 60.7524 26.1931C63.4952 30.3072 64.9592 35.1441 64.9592 40.0922C64.9592 46.7267 62.3298 53.0895 57.6494 57.7811C52.969 62.4726 46.6209 65.1087 40.0014 65.1094Z" fill="url(#paint10_linear_17_435)"/>
</g>
<defs>
<linearGradient id="paint0_linear_17_435" x1="7.17211" y1="19.3383" x2="69.5823" y2="58.6129" gradientUnits="userSpaceOnUse">
<stop stop-color="#8B5E3C"/>
<stop offset="0.25" stop-color="#FBB040"/>
<stop offset="0.54" stop-color="#F4EEC2"/>
<stop offset="0.8" stop-color="#FBB040"/>
<stop offset="1" stop-color="#8B5E3C"/>
</linearGradient>
<linearGradient id="paint1_linear_17_435" x1="0.473565" y1="40.0921" x2="79.5265" y2="40.0921" gradientUnits="userSpaceOnUse">
<stop stop-color="#8B5E3C"/>
<stop offset="0.25" stop-color="#FBB040"/>
<stop offset="0.54" stop-color="#F4EEC2"/>
<stop offset="0.8" stop-color="#FBB040"/>
<stop offset="1" stop-color="#8B5E3C"/>
</linearGradient>
<linearGradient id="paint2_linear_17_435" x1="7.38686" y1="40.0921" x2="72.6131" y2="40.0921" gradientUnits="userSpaceOnUse">
<stop stop-color="#8B5E3C"/>
<stop offset="0.25" stop-color="#FBB040"/>
<stop offset="0.54" stop-color="#F4EEC2"/>
<stop offset="0.8" stop-color="#FBB040"/>
<stop offset="1" stop-color="#8B5E3C"/>
</linearGradient>
<radialGradient id="paint3_radial_17_435" cx="0" cy="0" r="1" gradientUnits="userSpaceOnUse" gradientTransform="translate(53.839 73.363) scale(27.7166 27.7794)">
<stop stop-color="#414042"/>
<stop offset="0.72" stop-color="#2C292B"/>
<stop offset="1" stop-color="#231F20"/>
</radialGradient>
<linearGradient id="paint4_linear_17_435" x1="31.7004" y1="77.0386" x2="54.4144" y2="77.0386" gradientUnits="userSpaceOnUse">
<stop stop-color="#8B5E3C"/>
<stop offset="0.25" stop-color="#FBB040"/>
<stop offset="0.54" stop-color="#F4EEC2"/>
<stop offset="0.8" stop-color="#FBB040"/>
<stop offset="1" stop-color="#8B5E3C"/>
</linearGradient>
<linearGradient id="paint5_linear_17_435" x1="51.9944" y1="68.2413" x2="75.5288" y2="68.2413" gradientUnits="userSpaceOnUse">
<stop stop-color="#8B5E3C"/>
<stop offset="0.25" stop-color="#FBB040"/>
<stop offset="0.54" stop-color="#F4EEC2"/>
<stop offset="0.8" stop-color="#FBB040"/>
<stop offset="1" stop-color="#8B5E3C"/>
</linearGradient>
<radialGradient id="paint6_radial_17_435" cx="0" cy="0" r="1" gradientUnits="userSpaceOnUse" gradientTransform="translate(26.6786 73.363) scale(27.7166 27.7794)">
<stop stop-color="#414042"/>
<stop offset="0.72" stop-color="#2C292B"/>
<stop offset="1" stop-color="#231F20"/>
</radialGradient>
<linearGradient id="paint7_linear_17_435" x1="26.1059" y1="77.0386" x2="48.8199" y2="77.0386" gradientUnits="userSpaceOnUse">
<stop stop-color="#8B5E3C"/>
<stop offset="0.25" stop-color="#FBB040"/>
<stop offset="0.54" stop-color="#F4EEC2"/>
<stop offset="0.8" stop-color="#FBB040"/>
<stop offset="1" stop-color="#8B5E3C"/>
</linearGradient>
<linearGradient id="paint8_linear_17_435" x1="4.9888" y1="68.2413" x2="28.526" y2="68.2413" gradientUnits="userSpaceOnUse">
<stop stop-color="#8B5E3C"/>
<stop offset="0.25" stop-color="#FBB040"/>
<stop offset="0.54" stop-color="#F4EEC2"/>
<stop offset="0.8" stop-color="#FBB040"/>
<stop offset="1" stop-color="#8B5E3C"/>
</linearGradient>
<radialGradient id="paint9_radial_17_435" cx="0" cy="0" r="1" gradientUnits="userSpaceOnUse" gradientTransform="translate(40.0014 40.0921) scale(33.4983 33.5743)">
<stop stop-color="#414042"/>
<stop offset="1" stop-color="#231F20"/>
</radialGradient>
<linearGradient id="paint10_linear_17_435" x1="9.26455" y1="40.0922" x2="70.7354" y2="40.0922" gradientUnits="userSpaceOnUse">
<stop stop-color="#8B5E3C"/>
<stop offset="0.25" stop-color="#FBB040"/>
<stop offset="0.54" stop-color="#F4EEC2"/>
<stop offset="0.8" stop-color="#FBB040"/>
<stop offset="1" stop-color="#8B5E3C"/>
</linearGradient>
<clipPath id="clip0_17_435">
<rect width="80" height="105" fill="white"/>
</clipPath>
</defs>
</svg>
