<svg width="198" height="48" viewBox="0 0 198 48" fill="none" xmlns="http://www.w3.org/2000/svg">
<path d="M44.0863 12.0018L31.4886 5.14207L9.44537 17.1402L9.4493 24L31.4807 11.9944L37.7894 15.4299V22.286L15.7462 34.2841L22.0432 37.7159L44.0863 25.714V12.0018Z" fill="#231F20"/>
<path d="M9.4454 34.2804L34.641 20.572V17.1439L31.4886 15.4299L6.293 29.131V15.4299L22.0393 6.85608H22.0432L28.3401 3.42804L22.0393 0L0 12.0018V35.9981L22.0393 48L44.0864 35.9981V29.1384L22.0393 41.1402L9.4454 34.2804Z" fill="#231F20"/>
<path d="M99.6438 11.9907H93.343V35.987H99.6438V11.9907Z" fill="#231F20"/>
<path d="M78.1502 11.9907H71.8533V30.0453V35.9833H78.1502H86.6574L90.1906 30.0453H78.1502V11.9907Z" fill="#231F20"/>
<path d="M110.773 11.9907H105.148L101.615 17.9287H110.773V35.9833H117.074V17.9287H122.7L126.233 11.9907H117.074H110.773Z" fill="#231F20"/>
<path d="M65.1677 17.9287L68.7009 11.9907H56.6645H50.3636V17.9287V21.2975V26.4396V30.0453V35.9833H56.6645H65.1677L68.7009 30.0453H56.6645V26.4396H65.8037L68.7009 21.2975H56.6645V17.9287H65.1677Z" fill="#231F20"/>
<path d="M161.196 35.9833H162.103H167.646L171.179 30.0416H161.867H161.196C157.647 30.0416 154.773 27.3281 154.773 23.9852C154.773 20.6386 157.651 17.9287 161.196 17.9287H161.867H162.103H167.646L171.179 11.987H161.867H161.196C154.169 11.987 148.472 17.3586 148.472 23.9852C148.472 30.6118 154.169 35.9833 161.196 35.9833Z" fill="#231F20"/>
<path d="M142.969 17.9287L146.502 11.9907H134.461H128.161V17.9287V21.2975V26.4396V30.0453V35.9833H134.461H142.969L146.502 30.0453H134.461V26.4396H143.601L146.502 21.2975H134.461V17.9287H142.969Z" fill="#231F20"/>
<path d="M191.699 11.9907V21.2975H180.628V11.9907H174.328V35.9833H180.628V26.4396H191.699V35.9833H198V11.9907H191.699Z" fill="#231F20"/>
<path d="M160.658 44.0981C160.843 43.7279 160.937 43.3133 160.937 42.8542C160.937 42.3989 160.843 41.9806 160.658 41.6067C160.474 41.2328 160.203 40.907 159.849 40.6405C159.496 40.3702 159.064 40.1592 158.55 40.0111C158.036 39.8593 157.451 39.7853 156.795 39.7853H151.495L149.764 41.9176H157.035C157.439 41.9176 157.753 42.0028 157.977 42.1694C158.201 42.336 158.311 42.5618 158.311 42.8505C158.311 43.1356 158.201 43.3651 157.977 43.5354C157.753 43.7057 157.439 43.7945 157.035 43.7945H149.764V47.9815H152.363V45.8862H156.779C157.435 45.8862 158.02 45.8121 158.534 45.6641C159.049 45.516 159.484 45.3124 159.842 45.0532C160.203 44.783 160.474 44.4683 160.658 44.0981Z" fill="#231F20"/>
<path d="M167.709 39.9074C167.446 39.7335 167.112 39.6446 166.72 39.6446C166.307 39.6446 165.966 39.7372 165.695 39.926C165.424 40.1148 165.204 40.3258 165.028 40.5627L159.614 47.9704H162.707L166.672 42.5322L168.188 44.7015C168.329 44.8977 168.478 45.1087 168.635 45.3309C168.792 45.5567 168.926 45.7418 169.048 45.8862C168.847 45.8713 168.608 45.8639 168.333 45.8639H167.544H165.424L163.846 47.9704H173.668L168.392 40.5627C168.2 40.3036 167.976 40.0851 167.709 39.9074Z" fill="#231F20"/>
<path d="M184.315 45.7085C184.138 45.5456 183.977 45.4086 183.836 45.305C184.181 45.2383 184.491 45.1273 184.762 44.9681C185.033 44.8089 185.269 44.6164 185.457 44.3869C185.646 44.1573 185.791 43.9019 185.893 43.6169C185.995 43.3318 186.046 43.0282 186.046 42.7099C186.046 42.1212 185.909 41.64 185.634 41.2661C185.359 40.8922 185.014 40.5923 184.594 40.3739C184.173 40.1518 183.706 40 183.192 39.9149C182.678 39.8297 182.183 39.7853 181.704 39.7853H176.275L174.571 41.9176H181.916C182.372 41.9176 182.725 41.9991 182.976 42.1583C183.227 42.3175 183.357 42.5581 183.357 42.8728C183.357 43.1578 183.22 43.3836 182.941 43.5465C182.662 43.7094 182.324 43.7908 181.92 43.7908H174.571V47.9778H177.186V45.8084H181.202L183.082 47.9778H186.58L185.025 46.3859C184.727 46.0935 184.491 45.8714 184.315 45.7085Z" fill="#231F20"/>
<path d="M186.713 41.9102H190.678V47.9741H193.289V41.9102H196.308L198 39.7816H188.405L186.713 41.9102Z" fill="#231F20"/>
</svg>
